<svg preserveAspectRatio="none" width="100%" height="100%" overflow="visible" style="display: block;" viewBox="0 0 867.852 1223.15" fill="none" xmlns="http://www.w3.org/2000/svg">
<g id="V" clip-path="url(#clip0_0_206)">
<path id="Line 32" d="M0 1223.15L0 6.10352e-05" stroke="var(--stroke-0, white)" stroke-opacity="0.1" stroke-width="0.5" stroke-linecap="round" stroke-linejoin="round"/>
<path id="Line 74" d="M29.1225 1223.15L29.1225 -2.24279e-05" stroke="var(--stroke-0, white)" stroke-opacity="0.1" stroke-width="0.5" stroke-linecap="round" stroke-linejoin="round"/>
<path id="Line 75" d="M58.245 1223.15L58.245 -2.37009e-05" stroke="var(--stroke-0, white)" stroke-opacity="0.1" stroke-width="0.5" stroke-linecap="round" stroke-linejoin="round"/>
<path id="Line 76" d="M87.3676 1223.15L87.3676 -2.49738e-05" stroke="var(--stroke-0, white)" stroke-opacity="0.1" stroke-width="0.5" stroke-linecap="round" stroke-linejoin="round"/>
<path id="Line 77" d="M116.49 1223.15L116.49 -2.62468e-05" stroke="var(--stroke-0, white)" stroke-opacity="0.1" stroke-width="0.5" stroke-linecap="round" stroke-linejoin="round"/>
<path id="Line 34" d="M145.613 1223.15L145.613 -2.75198e-05" stroke="var(--stroke-0, white)" stroke-opacity="0.1" stroke-width="0.5" stroke-linecap="round" stroke-linejoin="round"/>
<path id="Line 55" d="M174.735 1223.15L174.735 -2.87928e-05" stroke="var(--stroke-0, white)" stroke-opacity="0.1" stroke-width="0.5" stroke-linecap="round" stroke-linejoin="round"/>
<path id="Line 35" d="M203.858 1223.15L203.858 -3.00658e-05" stroke="var(--stroke-0, white)" stroke-opacity="0.1" stroke-width="0.5" stroke-linecap="round" stroke-linejoin="round"/>
<path id="Line 56" d="M232.98 1223.15L232.98 -3.13388e-05" stroke="var(--stroke-0, white)" stroke-opacity="0.1" stroke-width="0.5" stroke-linecap="round" stroke-linejoin="round"/>
<path id="Line 36" d="M262.103 1223.15L262.103 -3.26118e-05" stroke="var(--stroke-0, white)" stroke-opacity="0.1" stroke-width="0.5" stroke-linecap="round" stroke-linejoin="round"/>
<path id="Line 57" d="M291.225 1223.15L291.225 -3.38848e-05" stroke="var(--stroke-0, white)" stroke-opacity="0.1" stroke-width="0.5" stroke-linecap="round" stroke-linejoin="round"/>
<path id="Line 37" d="M320.348 1223.15L320.348 -3.51577e-05" stroke="var(--stroke-0, white)" stroke-opacity="0.1" stroke-width="0.5" stroke-linecap="round" stroke-linejoin="round"/>
<path id="Line 58" d="M349.471 1223.15L349.471 -3.64307e-05" stroke="var(--stroke-0, white)" stroke-opacity="0.1" stroke-width="0.5" stroke-linecap="round" stroke-linejoin="round"/>
<path id="Line 38" d="M378.593 1223.15L378.593 -3.77037e-05" stroke="var(--stroke-0, white)" stroke-opacity="0.1" stroke-width="0.5" stroke-linecap="round" stroke-linejoin="round"/>
<path id="Line 59" d="M407.716 1223.15L407.716 -3.89767e-05" stroke="var(--stroke-0, white)" stroke-opacity="0.1" stroke-width="0.5" stroke-linecap="round" stroke-linejoin="round"/>
<path id="Line 39" d="M436.838 1223.15L436.838 -4.02497e-05" stroke="var(--stroke-0, white)" stroke-opacity="0.1" stroke-width="0.5" stroke-linecap="round" stroke-linejoin="round"/>
<path id="Line 60" d="M465.961 1223.15L465.961 -4.15227e-05" stroke="var(--stroke-0, white)" stroke-opacity="0.1" stroke-width="0.5" stroke-linecap="round" stroke-linejoin="round"/>
<path id="Line 40" d="M495.083 1223.15L495.083 -4.27957e-05" stroke="var(--stroke-0, white)" stroke-opacity="0.1" stroke-width="0.5" stroke-linecap="round" stroke-linejoin="round"/>
<path id="Line 61" d="M524.206 1223.15L524.206 -4.40687e-05" stroke="var(--stroke-0, white)" stroke-opacity="0.1" stroke-width="0.5" stroke-linecap="round" stroke-linejoin="round"/>
<path id="Line 45" d="M553.328 1223.15L553.328 -4.53416e-05" stroke="var(--stroke-0, white)" stroke-opacity="0.1" stroke-width="0.5" stroke-linecap="round" stroke-linejoin="round"/>
<path id="Line 62" d="M582.451 1223.15L582.451 -4.66146e-05" stroke="var(--stroke-0, white)" stroke-opacity="0.1" stroke-width="0.5" stroke-linecap="round" stroke-linejoin="round"/>
<path id="Line 46" d="M611.574 1223.15L611.574 -4.78876e-05" stroke="var(--stroke-0, white)" stroke-opacity="0.1" stroke-width="0.5" stroke-linecap="round" stroke-linejoin="round"/>
<path id="Line 63" d="M640.696 1223.15L640.696 -4.91606e-05" stroke="var(--stroke-0, white)" stroke-opacity="0.1" stroke-width="0.5" stroke-linecap="round" stroke-linejoin="round"/>
<path id="Line 47" d="M669.819 1223.15L669.819 -5.04336e-05" stroke="var(--stroke-0, white)" stroke-opacity="0.1" stroke-width="0.5" stroke-linecap="round" stroke-linejoin="round"/>
<path id="Line 64" d="M698.941 1223.15L698.941 -5.17066e-05" stroke="var(--stroke-0, white)" stroke-opacity="0.1" stroke-width="0.5" stroke-linecap="round" stroke-linejoin="round"/>
<path id="Line 48" d="M728.064 1223.15L728.064 -5.29796e-05" stroke="var(--stroke-0, white)" stroke-opacity="0.1" stroke-width="0.5" stroke-linecap="round" stroke-linejoin="round"/>
<path id="Line 65" d="M757.186 1223.15L757.186 -5.42526e-05" stroke="var(--stroke-0, white)" stroke-opacity="0.1" stroke-width="0.5" stroke-linecap="round" stroke-linejoin="round"/>
<path id="Line 49" d="M786.309 1223.15L786.309 -5.55255e-05" stroke="var(--stroke-0, white)" stroke-opacity="0.1" stroke-width="0.5" stroke-linecap="round" stroke-linejoin="round"/>
<path id="Line 66" d="M815.431 1223.15L815.431 -5.67985e-05" stroke="var(--stroke-0, white)" stroke-opacity="0.1" stroke-width="0.5" stroke-linecap="round" stroke-linejoin="round"/>
<path id="Line 51" d="M844.554 1223.15L844.554 -5.80715e-05" stroke="var(--stroke-0, white)" stroke-opacity="0.1" stroke-width="0.5" stroke-linecap="round" stroke-linejoin="round"/>
<path id="Line 67" d="M873.677 1223.15L873.677 -5.93445e-05" stroke="var(--stroke-0, white)" stroke-opacity="0.1" stroke-width="0.5" stroke-linecap="round" stroke-linejoin="round"/>
<path id="Line 54" d="M902.799 1223.15L902.799 -6.06175e-05" stroke="var(--stroke-0, white)" stroke-opacity="0.1" stroke-width="0.5" stroke-linecap="round" stroke-linejoin="round"/>
<path id="Line 68" d="M931.922 1223.15L931.922 -6.18905e-05" stroke="var(--stroke-0, white)" stroke-opacity="0.1" stroke-width="0.5" stroke-linecap="round" stroke-linejoin="round"/>
<path id="Line 41" d="M961.044 1223.15L961.044 -6.31635e-05" stroke="var(--stroke-0, white)" stroke-opacity="0.1" stroke-width="0.5" stroke-linecap="round" stroke-linejoin="round"/>
<path id="Line 69" d="M990.167 1223.15L990.167 -6.44365e-05" stroke="var(--stroke-0, white)" stroke-opacity="0.1" stroke-width="0.5" stroke-linecap="round" stroke-linejoin="round"/>
<path id="Line 42" d="M1019.29 1223.15L1019.29 -6.57094e-05" stroke="var(--stroke-0, white)" stroke-opacity="0.1" stroke-width="0.5" stroke-linecap="round" stroke-linejoin="round"/>
<path id="Line 70" d="M1048.41 1223.15L1048.41 -6.69824e-05" stroke="var(--stroke-0, white)" stroke-opacity="0.1" stroke-width="0.5" stroke-linecap="round" stroke-linejoin="round"/>
<path id="Line 43" d="M1077.53 1223.15L1077.53 -6.82554e-05" stroke="var(--stroke-0, white)" stroke-opacity="0.1" stroke-width="0.5" stroke-linecap="round" stroke-linejoin="round"/>
<path id="Line 71" d="M1106.66 1223.15L1106.66 -6.95284e-05" stroke="var(--stroke-0, white)" stroke-opacity="0.1" stroke-width="0.5" stroke-linecap="round" stroke-linejoin="round"/>
<path id="Line 44" d="M1135.78 1223.15L1135.78 -7.08014e-05" stroke="var(--stroke-0, white)" stroke-opacity="0.1" stroke-width="0.5" stroke-linecap="round" stroke-linejoin="round"/>
<path id="Line 72" d="M1164.9 1223.15L1164.9 -7.20744e-05" stroke="var(--stroke-0, white)" stroke-opacity="0.1" stroke-width="0.5" stroke-linecap="round" stroke-linejoin="round"/>
<path id="Line 33" d="M1194.02 1223.15L1194.02 -7.33474e-05" stroke="var(--stroke-0, white)" stroke-opacity="0.1" stroke-width="0.5" stroke-linecap="round" stroke-linejoin="round"/>
<path id="Line 73" d="M1223.15 1223.15L1223.15 -7.46204e-05" stroke="var(--stroke-0, white)" stroke-opacity="0.1" stroke-width="0.5" stroke-linecap="round" stroke-linejoin="round"/>
</g>
<defs>
<clipPath id="clip0_0_206">
<rect width="867.852" height="1223.15" fill="white"/>
</clipPath>
</defs>
</svg>
