<svg preserveAspectRatio="none" width="100%" height="100%" overflow="visible" style="display: block;" viewBox="0 0 15.0753 9.94757" fill="none" xmlns="http://www.w3.org/2000/svg">
<path id="Vector" fill-rule="evenodd" clip-rule="evenodd" d="M15.0753 8.12533V6.792H0.408668L3.07534 8.12533H11.0753C11.0753 8.86133 11.9713 9.45867 13.0753 9.45867C14.1793 9.45867 15.0753 8.86133 15.0753 8.12533ZM5.382 0C5.366 0 5.342 0.00800029 5.31134 0.026667C5.23934 0.074667 5.098 0.222667 5.09267 0.393334C5.08867 0.490667 5.07 0.490667 5.13267 0.553334C5.178 0.617334 5.226 0.612 5.31667 0.562667C5.37 0.522667 5.38734 0.5 5.406 0.434667C5.42734 0.328 5.29 0.488 5.27267 0.365333C5.242 0.253333 5.33 0.205333 5.41267 0.0986668C5.41534 0.0453335 5.41533 0.00533346 5.382 0.00266679V0ZM6.71934 0.00666682C6.69267 0.0120002 6.662 0.0466669 6.618 0.124C6.58733 0.206667 6.45267 0.332 6.55134 0.590667C6.62867 0.754667 6.662 1.02 6.626 1.31733C6.57 1.40133 6.55933 1.43067 6.486 1.51467C6.38467 1.62533 6.27267 1.59733 6.19 1.55467C6.11 1.50133 6.04867 1.47467 6.01267 1.30667C6.01934 1.04 6.03533 0.597333 5.986 0.504C5.914 0.36 5.794 0.410667 5.74334 0.454667C5.49934 0.681334 5.378 1.05867 5.30333 1.36133C5.23667 1.58 5.16334 1.516 5.11267 1.428C4.98867 1.31067 4.97934 0.401334 4.83 0.552C4.59 1.23733 4.96734 1.988 5.23 1.91467C5.41667 1.99467 5.53667 1.63467 5.614 1.24133C5.66734 1.13067 5.70734 1.11733 5.734 1.17467C5.72734 1.69733 5.774 1.81467 5.90733 1.972C6.206 2.204 6.454 2.00133 6.474 1.98267L6.70734 1.75067C6.76067 1.69733 6.82734 1.692 6.90067 1.74C6.97267 1.80667 6.96334 1.91733 7.114 1.99333C7.24467 2.04667 7.518 2.00667 7.58067 1.896C7.66734 1.74933 7.68734 1.69867 7.72734 1.64267C7.78867 1.56267 7.894 1.59867 7.894 1.624C7.88467 1.67067 7.82334 1.71733 7.86467 1.79733C7.938 1.85067 7.95534 1.816 7.998 1.804C8.15 1.732 8.26467 1.40133 8.26467 1.40133C8.27134 1.27867 8.202 1.288 8.158 1.31333C8.098 1.34933 8.09534 1.36133 8.038 1.39733C7.962 1.408 7.818 1.45733 7.74734 1.34667C7.674 1.21333 7.674 1.02933 7.618 0.893334C7.618 0.885334 7.52067 0.684 7.61 0.672C7.654 0.68 7.75267 0.705334 7.76734 0.624C7.81534 0.544 7.66467 0.317333 7.562 0.205333C7.474 0.108 7.35134 0.0960002 7.23267 0.194667C7.14867 0.272 7.162 0.357334 7.14467 0.438667C7.12467 0.532 7.12867 0.648 7.22467 0.772C7.30734 0.934667 7.458 1.14533 7.40733 1.44133C7.40733 1.44133 7.32067 1.58267 7.16734 1.564C7.10067 1.55067 6.99667 1.524 6.94067 1.11067C6.90067 0.8 6.95134 0.364 6.82067 0.16C6.79 0.0840002 6.76467 0.00933332 6.722 0.0133333L6.71934 0.00666682ZM6.29534 0.0413335C6.25534 0.0453335 6.21134 0.0919999 6.17534 0.181333C6.14467 0.250667 6.106 0.608 6.11267 0.608C6.086 0.714667 6.22334 0.76 6.286 0.624C6.37934 0.370667 6.37934 0.264 6.38467 0.16C6.37134 0.0800002 6.33534 0.0400001 6.29534 0.0426668V0.0413335ZM7.85934 0.0680002C7.81934 0.0733335 7.786 0.0973336 7.774 0.158667C7.75667 0.3 7.766 0.378667 7.79 0.497333C7.80734 0.577333 7.92334 0.708 7.97934 0.785333C8.25 1.14933 8.51267 1.51467 8.76334 1.892C8.80334 2.17467 8.83 2.44933 8.85 2.724C8.89267 3.324 8.90334 4.07067 8.86734 4.704C8.97934 4.708 9.16067 4.52133 9.22334 4.25067C9.26334 3.872 9.21 3.104 9.20467 2.88L9.19134 2.56267C9.48467 3.04267 9.76734 3.54933 10.0447 4.104C10.1473 4.056 10.1247 3.484 10.066 3.404C9.842 2.924 9.53267 2.44933 9.43534 2.26667C9.39934 2.2 9.278 2.01733 9.13534 1.80533C9.10867 1.50133 9.07934 1.24533 9.06067 1.168C9.014 0.848 9.19134 1.204 9.16734 1.01867C9.10867 0.698667 8.93267 0.482667 8.72467 0.189333C8.658 0.0959999 8.658 0.0746668 8.55533 0.213333C8.49533 0.353333 8.49534 0.470667 8.51534 0.58C8.486 0.54 8.45267 0.494667 8.40467 0.436L8.06467 0.148C8.018 0.114667 7.92734 0.0640002 7.85934 0.0680002V0.0680002ZM12.494 0.117333C12.474 0.114667 12.454 0.124 12.4273 0.16C12.3807 0.2 12.3313 0.276 12.334 0.373333C12.3433 0.54 12.374 0.712 12.3847 0.88L12.398 0.946667C12.3793 0.925334 12.3633 0.906667 12.354 0.898667C12.0247 0.552 12.5047 0.84 12.29 0.574667C12.11 0.374667 12.0567 0.313334 11.9033 0.193334C11.8233 0.145334 11.778 0.0493335 11.7527 0.212C11.742 0.354667 11.7313 0.521334 11.7393 0.641334C11.7393 0.708 11.81 0.834667 11.87 0.908C12.0887 1.17867 12.3127 1.46533 12.5367 1.764C12.5847 2.37333 12.5967 2.932 12.6433 3.54267C12.638 3.804 12.558 4.15067 12.4833 4.18267C12.4833 4.18267 12.366 4.24933 12.2887 4.176C12.2313 4.15333 12.006 3.79867 12.006 3.79867C11.89 3.692 11.8127 3.72267 11.7313 3.79867C11.5047 4.01733 11.4007 4.428 11.2473 4.71067C11.2073 4.77333 11.0967 4.828 10.9727 4.70533C10.6567 4.27333 10.8393 3.65867 10.802 3.81733C10.522 4.13467 10.6447 4.66 10.7087 4.77333C10.802 4.96 10.8767 5.08 11.0553 5.16933C11.222 5.28933 11.3487 5.216 11.4207 5.12933C11.586 4.95867 11.5887 4.52 11.666 4.43333C11.7193 4.27333 11.8567 4.3 11.9233 4.372C11.99 4.46533 12.0647 4.52533 12.1593 4.576C12.314 4.712 12.498 4.736 12.6793 4.612C12.8033 4.54267 12.8847 4.452 12.9567 4.27333C13.0367 4.06533 12.9967 2.972 12.9793 2.364L13.326 2.86533C13.374 3.39867 13.3967 3.92533 13.3793 4.42933C13.3687 4.52933 13.73 4.13067 13.726 3.94133C13.726 3.77733 13.7287 3.62667 13.726 3.488C13.9033 3.768 14.0727 4.052 14.2327 4.34133C14.3327 4.288 14.2993 3.724 14.2367 3.648C14.0687 3.36533 13.8527 3.06133 13.686 2.824C13.6527 2.52667 13.6087 2.176 13.5873 2.068C13.5567 1.9 13.5247 1.648 13.4767 1.44933C13.4633 1.37333 13.4233 1.12533 13.4367 1.10267C13.4553 1.04533 13.53 1.10267 13.566 1.03867C13.6193 0.978667 13.3767 0.345334 13.2527 0.166667C13.2087 0.086667 13.1273 0.113334 13.0287 0.246667C12.9353 0.332 12.97 0.529333 13.0047 0.717333C13.0953 1.19733 13.178 1.68267 13.242 2.17067C13.122 1.99067 12.9753 1.77467 12.8313 1.568L12.8127 1.47467C12.8127 1.464 12.794 1.08133 12.7767 0.990667C12.7727 0.953334 12.7633 0.942667 12.8033 0.948C12.8433 0.982667 12.8487 0.984 12.874 0.996C12.9167 1.00133 12.954 0.932 12.9273 0.866667L12.5407 0.154667C12.5273 0.137333 12.5087 0.121333 12.4873 0.118667L12.494 0.117333ZM0.534002 0.130667C0.460668 0.128 0.383335 0.170667 0.414002 0.257333C0.395335 0.304 0.552669 0.461333 0.580669 0.548C0.603335 0.610667 0.554002 0.808 0.607335 0.828C0.654002 0.848 0.719335 0.689334 0.743335 0.544C0.756668 0.464 0.747335 0.189334 0.560668 0.133334C0.551335 0.130667 0.542002 0.130667 0.531335 0.129333L0.534002 0.130667ZM14.1607 0.130667C14.1433 0.133334 14.1233 0.157333 14.094 0.224C14.0207 0.344 13.9953 0.557334 14.0247 0.744C14.198 1.93067 14.3313 3.08 14.358 4.13067C14.342 4.232 14.3367 4.28533 14.2913 4.41067C14.1873 4.544 14.0727 4.70933 13.9647 4.78933C13.858 4.86933 13.6287 4.94667 13.554 5.00533C13.314 5.14133 13.314 5.29867 13.506 5.30533C13.8367 5.26533 14.2287 5.23867 14.498 4.832C14.57 4.71867 14.6553 4.40933 14.658 4.21867C14.6847 3.112 14.6447 2.02533 14.478 1.224C14.4673 1.144 14.4327 0.966667 14.446 0.944C14.466 0.888 14.574 0.948 14.6127 0.885334C14.67 0.826667 14.3327 0.396 14.2153 0.212C14.1913 0.166667 14.1753 0.128 14.1567 0.132L14.1607 0.130667ZM10.69 0.149334C10.6767 0.152 10.658 0.173333 10.6207 0.222667C10.5273 0.524 10.4953 0.769333 10.5313 0.958667C10.7713 2.19867 11.0113 3.32533 10.974 4.50533C11.086 4.50533 11.2167 4.248 11.2727 3.992C11.3033 3.63867 11.2513 3.424 11.2433 3.21867C11.234 3.01067 11.0087 1.33067 10.9633 1.17467C10.9073 0.878667 11.182 1.13467 11.1527 0.964C11.0567 0.745334 10.8193 0.430667 10.7473 0.24C10.7207 0.189333 10.7153 0.142667 10.694 0.146667L10.69 0.149334ZM2.24467 0.173333C2.218 0.178666 2.18734 0.202667 2.178 0.24C2.17134 0.266667 2.18867 0.310667 2.16467 0.324C2.15134 0.337334 2.10067 0.328 2.10334 0.257333C2.10334 0.233333 2.086 0.209334 2.07667 0.194667C2.066 0.189334 2.05934 0.188 2.04067 0.188C2.018 0.188 2.018 0.194667 2.006 0.214667C2.00067 0.233333 1.99267 0.252 1.99267 0.273334C1.99 0.3 1.97934 0.306667 1.962 0.310667C1.94067 0.310667 1.94467 0.313333 1.92867 0.301333C1.91534 0.292 1.90467 0.288 1.90467 0.269333C1.90467 0.249333 1.89934 0.216 1.894 0.205333C1.88467 0.192 1.87 0.186667 1.854 0.182667C1.766 0.182667 1.76067 0.286667 1.76467 0.324C1.758 0.332 1.75534 0.510667 1.87534 0.561334C2.03534 0.638667 2.33934 0.605333 2.32867 0.345333C2.32867 0.322667 2.322 0.245333 2.31934 0.225333C2.30334 0.185333 2.27267 0.172 2.24334 0.176L2.24467 0.173333ZM4.41267 0.176C4.35667 0.178667 4.306 0.194667 4.266 0.216C4.15934 0.318667 4.13267 0.482666 4.218 0.585333C4.298 0.625333 4.382 0.705333 4.32734 0.752C4.09534 0.998666 3.49134 1.41333 3.46067 1.48933V1.49733H3.466V1.5C3.49667 1.52 3.87534 1.52 3.91667 1.5H3.91934C4.05 1.45067 4.666 0.746667 4.666 0.746667C4.634 0.72 4.60467 0.698667 4.57267 0.670667C4.538 0.641333 4.542 0.612 4.57267 0.582667C4.72467 0.494667 4.67667 0.298667 4.59667 0.209334C4.53 0.18 4.46867 0.169333 4.41267 0.173333V0.176ZM10.0793 0.176C10.0633 0.18 10.0433 0.202667 10.0127 0.269333C9.93934 0.389333 9.89 0.596 9.89667 0.789334C10.054 1.88267 10.102 2.83867 10.206 3.932C10.214 4.03867 10.198 4.19067 10.1287 4.252C9.86734 4.524 9.49267 4.85733 9.08467 5.012C9.04067 5.06133 9.194 5.27067 9.39134 5.27067C9.722 5.23067 10.0127 5.04667 10.2847 4.55733C10.3553 4.444 10.482 4.2 10.4847 4.01067C10.5113 2.90133 10.4313 2.03733 10.2633 1.23733C10.254 1.15733 10.2607 1.064 10.274 1.04267C10.2953 1.016 10.3673 1.04267 10.4073 0.98C10.4633 0.921333 10.2553 0.442667 10.138 0.26C10.114 0.213333 10.1007 0.176 10.0793 0.177334V0.176ZM1.30067 0.212C1.25534 0.217334 1.21267 0.252 1.19133 0.305334C1.18467 0.478667 1.18334 0.652 1.20467 0.814667C1.28467 1.09867 1.30734 1.348 1.346 1.63733C1.35934 2.02667 1.122 1.80533 1.13267 1.61333C1.186 1.36267 1.17267 0.969334 1.12467 0.869334C1.08467 0.769334 1.042 0.745334 0.948669 0.762667C0.875335 0.757334 0.684668 0.962667 0.631335 1.30933C0.631335 1.30933 0.586002 1.48533 0.567335 1.64267C0.540668 1.82 0.423335 1.94667 0.340668 1.61867C0.270002 1.37867 0.227335 0.792 0.108669 0.928C0.0740019 1.38667 0.034002 2.19467 0.423335 2.27733C0.895335 2.32267 0.634002 1.48 0.804668 1.32667C0.838002 1.25333 0.898002 1.252 0.902002 1.34667V2.06267C0.896668 2.29467 1.04867 2.364 1.16867 2.412C1.29267 2.40267 1.374 2.40667 1.422 2.52667L1.482 3.76667C1.482 3.76667 1.76733 3.84667 1.78067 3.06933C1.794 2.612 1.68734 2.22933 1.75 2.14C1.75267 2.052 1.86467 2.04667 1.942 2.09067C2.066 2.17733 2.12067 2.284 2.31267 2.24133C2.606 2.16133 2.77934 2.02 2.78334 1.796C2.77 1.58267 2.74334 1.36933 2.65 1.156C2.66334 1.11867 2.59667 1.01867 2.61 0.98C2.66067 1.06 2.74067 1.05467 2.75667 0.98C2.70867 0.816 2.63134 0.66 2.506 0.593333C2.40334 0.5 2.25267 0.52 2.19667 0.709334C2.17 0.928 2.27667 1.18667 2.43667 1.39867C2.46867 1.48133 2.51667 1.61867 2.49534 1.74267C2.41134 1.79067 2.32734 1.76933 2.25534 1.696C2.25534 1.696 2.02467 1.52267 2.02467 1.48267C2.08734 1.08933 2.038 1.04267 2.00467 0.936C1.98067 0.784 1.90867 0.736 1.85133 0.632C1.79267 0.569334 1.714 0.569334 1.678 0.632C1.574 0.809334 1.622 1.192 1.69667 1.36133C1.75 1.51867 1.83267 1.61733 1.794 1.61733C1.762 1.704 1.69534 1.684 1.64734 1.58133C1.58067 1.368 1.56467 1.05333 1.56467 0.910667C1.54467 0.734667 1.522 0.357334 1.40467 0.261334C1.374 0.218667 1.338 0.204 1.302 0.208L1.30067 0.212ZM2.95667 0.212C2.934 0.217334 2.90734 0.230667 2.87667 0.238667C2.77667 0.269334 2.68334 0.356 2.71267 0.524C2.83267 1.244 2.90867 1.79467 3.02734 2.51467C3.04467 2.6 2.974 2.71067 2.88334 2.70133C2.72867 2.59467 2.69 2.38133 2.426 2.392C2.234 2.392 2.01534 2.60267 1.98867 2.80267C1.95667 2.96267 1.946 3.136 1.98867 3.27467C2.122 3.43467 2.28467 3.41867 2.426 3.38133C2.542 3.33467 2.63934 3.22133 2.67934 3.248C2.706 3.292 2.67667 3.66667 2.13267 3.95467C1.79667 4.10667 1.53 4.14133 1.386 3.86933C1.298 3.69867 1.394 3.048 1.17533 3.19733C0.527335 4.86667 2.69134 5.09867 2.93267 3.26667C2.94867 3.21333 2.99534 3.16267 3.03 3.176C3.04334 3.18267 3.05667 3.20267 3.062 3.24C3.01133 4.89867 1.38733 5.01333 1.11267 4.49067C1.04333 4.368 1.02333 4.09333 1.01667 3.93067C1.00333 3.83067 0.979335 3.77333 0.950002 3.75067C0.883335 3.70133 0.795335 3.83067 0.776668 4.05333C0.750002 4.23333 0.756669 4.28267 0.756669 4.456C0.844669 5.76667 2.934 5.20267 3.274 4.12267C3.442 3.56267 3.27 3.14 3.32734 3.088L3.33134 3.08533H3.33534L3.342 3.08267C3.55 3.30667 3.84067 3.10933 3.90467 3.03333C3.93134 2.99333 4.00067 2.96667 4.04867 3.02C4.20867 3.13467 4.494 3.08 4.55267 2.87333C4.58734 2.67333 4.61667 2.468 4.62334 2.25333C4.51667 2.28667 4.43134 2.31067 4.39667 2.34667C4.38867 2.356 4.38334 2.36667 4.38067 2.37733L4.354 2.55467C4.354 2.56133 4.35134 2.56533 4.34867 2.568C4.34467 2.57733 4.33534 2.584 4.33 2.588C4.29267 2.608 4.22734 2.59733 4.22334 2.54267C4.174 2.316 3.96734 2.28667 3.842 2.64C3.758 2.70667 3.602 2.72 3.58867 2.61867C3.60867 2.38133 3.51267 2.34933 3.322 2.46133L3.138 1.07467C3.218 1.07067 3.29 1.128 3.36467 1.03733C3.28467 0.792 3.118 0.293334 3.02334 0.245334H3.02067L3.00734 0.232C3.00734 0.229333 3.00333 0.228 3.00067 0.226667L2.99534 0.218667C2.99 0.218667 2.98467 0.216 2.982 0.214667C2.97267 0.212 2.96467 0.212 2.95534 0.212H2.95667ZM9.41267 0.217333C9.33 0.214666 9.23934 0.266667 9.274 0.370667C9.25267 0.428 9.45134 0.62 9.48334 0.724C9.54067 0.884 9.43934 1.04 9.49934 1.06267C9.55534 1.08667 9.63267 0.896 9.65934 0.718667C9.694 0.574667 9.59267 0.281333 9.446 0.221333L9.41267 0.218667V0.217333ZM4.382 0.392C4.41934 0.389333 4.46467 0.424 4.48867 0.472C4.51134 0.525334 4.49934 0.574667 4.462 0.584C4.422 0.593333 4.37134 0.56 4.34734 0.506666C4.32334 0.453333 4.334 0.404 4.374 0.394667H4.382V0.392ZM13.7113 0.634667C13.6353 0.632 13.5513 0.688 13.586 0.801333C13.5673 0.862667 13.746 1.07067 13.7767 1.18533C13.8033 1.26533 13.7367 1.52667 13.79 1.55067C13.8407 1.57733 13.91 1.36933 13.9367 1.17733C13.9527 1.07067 13.8753 0.704 13.7433 0.638667C13.734 0.636 13.7233 0.633333 13.7127 0.633333L13.7113 0.634667ZM8.55134 0.762667C8.56067 0.793334 8.56734 0.824 8.57134 0.856C8.58734 0.922667 8.60067 0.989333 8.614 1.05867C8.55534 0.976 8.50734 0.909334 8.48467 0.885334C8.35134 0.725334 8.48734 0.781334 8.55134 0.762667V0.762667ZM9.742 1.34667C9.71267 1.352 9.68467 1.37733 9.67534 1.41733C9.66734 1.44133 9.686 1.484 9.662 1.49733C9.64867 1.51067 9.59534 1.50267 9.59934 1.43067C9.59934 1.40667 9.582 1.38133 9.57267 1.368C9.562 1.36133 9.55534 1.35867 9.53667 1.35867C9.514 1.35867 9.514 1.36533 9.502 1.38533C9.49667 1.404 9.48867 1.42267 9.48867 1.44533C9.48867 1.472 9.478 1.48 9.45934 1.48533C9.438 1.48533 9.442 1.48533 9.42467 1.476C9.414 1.46267 9.402 1.46 9.402 1.44133C9.402 1.42133 9.398 1.39067 9.39134 1.37733C9.382 1.364 9.36867 1.36 9.35134 1.35467C9.26467 1.35467 9.258 1.456 9.26334 1.49333C9.258 1.50133 9.254 1.68267 9.374 1.73333C9.53667 1.80933 9.84067 1.77333 9.82734 1.51467C9.82734 1.492 9.82067 1.41467 9.81933 1.39467C9.802 1.35467 9.77134 1.34133 9.74334 1.34533L9.742 1.34667ZM4.31534 1.4C4.29667 1.4 4.27 1.40533 4.23934 1.424C4.09667 1.50133 4.042 1.73067 4.13267 1.864C4.21267 1.984 4.346 1.94 4.36334 1.94C4.50334 1.95867 4.586 1.67867 4.586 1.67867C4.586 1.67867 4.59 1.59867 4.426 1.748C4.354 1.76133 4.346 1.73467 4.32734 1.69467C4.31134 1.624 4.314 1.548 4.34734 1.47733C4.36334 1.43333 4.34734 1.40533 4.31534 1.40267V1.4ZM11.986 1.436C11.906 1.432 11.822 1.484 11.7993 1.592C11.7993 1.656 11.8287 1.69067 11.8233 1.74933C11.8167 1.78267 11.7833 1.80267 11.7007 1.76533C11.714 1.752 11.6473 1.66133 11.6473 1.66133C11.5847 1.62133 11.5007 1.66133 11.4447 1.69867C11.414 1.75467 11.3913 1.84933 11.426 1.94533C11.5167 2.11467 11.83 2.40267 11.9793 2.40533C11.982 2.25333 11.9967 2.05067 12.006 1.92533C12.0087 1.87733 12.0193 1.82533 12.066 1.81333C12.1113 1.8 12.19 1.85867 12.19 1.80933C12.182 1.71333 12.1633 1.56933 12.11 1.50267C12.0807 1.46267 12.034 1.43867 11.9873 1.436H11.986ZM5.63534 1.96533L5.63134 1.96933C5.63134 1.96933 5.62867 1.96933 5.62733 1.972C5.61133 1.98533 5.59267 2.012 5.55134 2.03867C5.48067 2.11867 5.46867 2.176 5.47134 2.336C5.47667 2.35333 5.60467 2.71333 5.71533 2.96533C5.79 3.228 5.858 3.52933 5.80867 3.81333C5.63534 4.18933 5.28867 4.52667 4.95133 4.71067C4.778 4.764 4.63134 4.74533 4.59134 4.708C4.49267 4.64133 4.49134 4.52133 4.498 4.50267V4.49867C4.78067 4.30133 5.10467 4.14133 5.358 3.60933C5.43267 3.40533 5.45667 3.28267 5.382 2.96933C5.35267 2.84933 5.31534 2.756 5.23534 2.67067H5.238C5.286 2.648 5.41134 2.74 5.43134 2.684C5.40067 2.532 5.298 2.33067 5.18467 2.22667C5.08334 2.13333 4.97134 2.124 4.88067 2.208C4.77667 2.26667 4.75534 2.47467 4.80467 2.656C4.86067 2.792 5.01133 2.816 5.118 3.092C5.12067 3.11067 5.154 3.29867 5.10067 3.376C5.05534 3.512 4.494 3.95467 4.454 3.98133L4.45 3.984L4.44734 3.98667H4.44467H4.442V3.98267C4.43933 3.972 4.442 3.94267 4.442 3.89867C4.438 3.816 4.47267 3.628 4.46867 3.59467V3.592C4.282 3.712 4.21934 4.07867 4.186 4.188C3.71534 4.512 3.182 4.75333 2.874 5.08133C2.714 5.33467 3.978 4.796 4.12467 4.73067L4.12867 4.73467C4.158 4.76533 4.15934 4.872 4.24334 4.96933C4.37667 5.14667 4.654 5.256 4.926 5.188C5.382 5.024 5.646 4.71333 5.91267 4.368C5.95 4.31467 6.01 4.26933 6.066 4.312C6.24867 4.72267 6.77934 5.016 7.46334 5.04533C7.62334 4.85333 7.54734 4.75867 7.48334 4.71867C7.46334 4.70533 7.14333 4.58 7.09267 4.456C7.062 4.34133 7.138 4.23867 7.29 4.16267C7.73 4.10933 8.162 4.04933 8.58067 3.91467C8.58467 3.77333 8.66734 3.564 8.72334 3.472C8.76334 3.40933 8.786 3.40267 8.79534 3.39467V3.392H8.798V3.388V3.37467L8.726 3.332L7.322 3.32667C7.30467 3.32 7.29267 3.31333 7.28467 3.30667L7.282 3.30267C7.282 3.30267 7.27934 3.30267 7.27934 3.3C7.27934 3.29733 7.27667 3.29733 7.27667 3.29733V3.29867V3.296V3.29333V3.29067L7.27934 3.28667C7.286 3.27867 7.30334 3.26933 7.32334 3.26C7.65934 3.216 8.254 3.11867 8.294 2.54667C8.28733 2.248 8.166 2.05333 7.80067 2C7.53133 2.02 7.33934 2.28 7.37 2.56533C7.35667 2.64133 7.39667 2.792 7.31667 2.80933C6.802 2.85733 6.23934 3.18 6.22067 3.412H6.218H6.21533H6.21267C6.21267 3.41467 6.21 3.41467 6.20867 3.41467H6.20333H6.20067H6.19534C6.162 3.404 6.11934 3.348 6.126 3.272C6.106 2.872 5.97534 2.41867 5.77267 2.072C5.69934 1.99867 5.666 1.96933 5.64734 1.96533H5.64333H5.63934H5.63667H5.63534ZM6.97934 2.176C6.95267 2.18133 6.922 2.20533 6.91267 2.24533C6.906 2.272 6.926 2.31467 6.902 2.328C6.88867 2.34133 6.83533 2.33333 6.838 2.26133C6.838 2.23867 6.82067 2.21333 6.81134 2.19867C6.80067 2.192 6.794 2.19067 6.77667 2.19067C6.754 2.19067 6.75267 2.196 6.74067 2.21467C6.734 2.23333 6.72734 2.25467 6.72734 2.27467C6.72467 2.30133 6.714 2.30933 6.69667 2.312C6.67533 2.312 6.68067 2.316 6.66334 2.30533C6.65267 2.29467 6.63934 2.28933 6.63934 2.27067C6.63934 2.25067 6.63534 2.21733 6.63 2.204C6.62067 2.19467 6.606 2.19067 6.59 2.18533C6.50067 2.18533 6.49667 2.28533 6.50067 2.324C6.494 2.33067 6.49 2.51067 6.61 2.56133C6.77 2.63867 7.15667 2.59333 7.06334 2.344C7.06334 2.32133 7.05667 2.244 7.05533 2.224C7.038 2.184 7.00734 2.17067 6.978 2.17467L6.97934 2.176ZM12.3993 2.39867H12.386C12.386 2.39867 11.6367 2.932 11.6193 2.95067C11.5447 3.01733 11.582 3.248 11.6193 3.22133C11.6727 3.24133 12.426 2.73067 12.4113 2.67067C12.4447 2.67333 12.4607 2.408 12.398 2.39733L12.3993 2.39867ZM7.68733 2.47867C7.71667 2.47467 7.75667 2.48533 7.794 2.50533C7.85133 2.54 7.88734 2.588 7.88067 2.62533V2.63067C7.878 2.63067 7.878 2.63067 7.878 2.63333V2.636C7.878 2.636 7.87534 2.636 7.87534 2.63867C7.87534 2.64133 7.87134 2.644 7.86867 2.64667C7.842 2.67333 7.78067 2.668 7.722 2.63333C7.666 2.60267 7.63267 2.55333 7.63534 2.51867V2.51467L7.642 2.50133C7.642 2.50133 7.642 2.49867 7.64467 2.49733L7.65134 2.48933C7.66067 2.48267 7.67267 2.476 7.68733 2.476V2.47867ZM1.13 2.612C0.743335 2.62 0.174002 3.12133 0.159335 3.39867L1.386 2.812C1.31933 2.71067 1.382 2.62 1.13 2.612V2.612ZM2.38734 2.78533C2.42467 2.788 2.46467 2.80667 2.486 2.86C2.50467 2.90933 2.486 2.96 2.46334 2.98533V2.98933C2.44467 3.01067 2.38867 3.00267 2.34734 3.00267C2.298 3 2.274 2.992 2.24467 2.952C2.22867 2.90533 2.27134 2.86133 2.29134 2.82933L2.30067 2.816C2.314 2.80267 2.34067 2.792 2.36734 2.78933L2.38467 2.78667L2.38734 2.78533ZM12.254 2.94133C12.1833 2.94933 12.118 3.01467 12.1473 3.11867C12.1287 3.18 12.2407 3.39467 12.2713 3.508C12.298 3.588 12.2367 3.81867 12.2913 3.84133C12.342 3.868 12.474 3.708 12.47 3.50267C12.4833 3.396 12.4327 3.00933 12.3007 2.94533C12.2847 2.94133 12.2687 2.94 12.2527 2.94133H12.254ZM3.87534 3.32C3.814 3.324 3.75934 3.356 3.78467 3.44267C3.78067 3.504 3.958 3.58 3.96734 3.72267C3.99134 3.784 3.92734 3.976 3.98067 3.992C4.02867 4.012 4.09534 3.85867 4.12067 3.72C4.134 3.64267 4.05934 3.37333 3.934 3.324C3.914 3.31867 3.894 3.31733 3.874 3.31867L3.87534 3.32ZM6.382 3.66133H6.398C6.55533 3.704 6.78467 3.70933 6.98467 3.728C7.14867 3.74133 7.22867 3.86667 7.078 3.92133C6.926 3.972 6.78067 4.01467 6.78067 4.23067C6.79934 4.33733 6.794 4.39333 6.778 4.41733C6.778 4.42133 6.774 4.424 6.77267 4.42533C6.77267 4.42533 6.77267 4.428 6.77 4.428V4.43067H6.766L6.75667 4.43467H6.75C6.714 4.44133 6.662 4.408 6.62334 4.38667C6.53 4.32 6.27 4.16 6.23267 3.81333C6.22734 3.73333 6.286 3.66667 6.37933 3.66L6.382 3.66133ZM0.256669 3.928C0.247335 3.928 0.230002 3.95733 0.203335 3.99067C-0.0286646 4.35733 -0.0499984 4.90533 0.0780016 5.07067C0.144668 5.14667 0.256668 5.18133 0.339335 5.15733C0.486002 5.09467 0.548669 4.8 0.512669 4.69333C0.466002 4.61733 0.427335 4.60533 0.379335 4.66933C0.276669 4.876 0.232668 4.73333 0.226002 4.616C0.210002 4.39867 0.231335 4.196 0.255335 4.036C0.268669 3.956 0.268669 3.92533 0.255335 3.92533L0.256669 3.928ZM8.11934 4.41067C8.102 4.41067 8.08467 4.41333 8.066 4.424C8.062 4.424 7.90067 4.53067 7.84867 4.608C7.81667 4.632 7.822 4.652 7.83 4.69467C7.854 4.752 7.89667 4.73467 7.94734 4.708C8.014 4.69733 8.04467 4.74133 8.04067 4.82C8.01 4.92 8.054 4.956 8.054 4.96267C8.054 4.968 8.11667 5.02267 8.19134 4.98C8.34734 4.92 8.44467 4.86 8.66467 4.81333C8.722 4.81333 8.718 4.65867 8.62733 4.65333C8.50733 4.65867 8.40067 4.66667 8.28067 4.76C8.20734 4.776 8.19533 4.73067 8.178 4.69067C8.15933 4.592 8.22067 4.52267 8.20734 4.448C8.21 4.452 8.17 4.416 8.118 4.41333L8.11934 4.41067ZM13.154 4.59733L13.0473 4.608C12.9993 4.61733 12.9833 4.63867 12.974 4.69733C12.978 4.784 13.0313 4.78 13.0873 4.81467C13.1193 4.85467 13.1407 4.892 13.0847 4.96133C13.0313 5.008 12.9953 5.03467 12.942 5.08133C12.9193 5.124 12.902 5.188 12.9793 5.20933C13.1193 5.24933 13.4433 5.03867 13.4433 5.036C13.4967 4.996 13.478 4.92 13.474 4.92C13.442 4.88533 13.3727 4.90667 13.3273 4.9C13.3047 4.9 13.234 4.88933 13.266 4.82533C13.2953 4.78533 13.306 4.76267 13.326 4.71333C13.346 4.66533 13.326 4.63333 13.2487 4.60667C13.2087 4.59867 13.182 4.596 13.1513 4.59733H13.154ZM11.2167 9.744C11.5767 9.76133 11.9127 9.748 12.27 9.76533C12.3287 9.81333 12.3007 9.92533 12.2633 9.944L12.2567 9.94667H12.2527H12.2473L11.946 9.93867V9.92133C11.9167 9.83867 11.7167 9.844 11.6687 9.908V9.912C11.666 9.912 11.6647 9.916 11.6647 9.91733L11.662 9.924V9.94C11.502 9.96 11.362 9.93467 11.2047 9.92933C11.158 9.872 11.1647 9.76933 11.218 9.74267L11.2167 9.744Z" fill="var(--fill-0, white)"/>
</svg>
