<svg preserveAspectRatio="none" width="100%" height="100%" overflow="visible" style="display: block;" viewBox="0 0 48.0782 16.0001" fill="none" xmlns="http://www.w3.org/2000/svg">
<g id="Group" style="mix-blend-mode:luminosity">
<path id="Vector" d="M8.36886 6.56576C7.63134 5.89569 6.6015 5.49096 5.30634 5.36054C4.52834 5.27959 3.92573 5.14018 3.52549 4.9468C3.14324 4.76242 2.88241 4.55106 2.75199 4.31272C2.61258 4.06538 2.54512 3.81354 2.54512 3.54371C2.54512 3.02655 2.75649 2.65778 3.1927 2.41044C3.6694 2.14062 4.2765 2.0057 5.00054 2.0147C5.40528 2.0147 5.75605 2.06866 6.04836 2.17659C6.34067 2.28453 6.59701 2.43293 6.81287 2.62181C7.02873 2.81068 7.21311 3.04453 7.36601 3.31886C7.51441 3.57519 7.73927 3.75508 8.03608 3.84952C8.34188 3.94845 8.63869 3.90798 8.90851 3.74158C9.15136 3.58418 9.29976 3.35034 9.33574 3.07152C9.37172 2.80619 9.29526 2.52287 9.11988 2.24405C8.84555 1.79434 8.51727 1.3986 8.14401 1.07031C7.76625 0.737523 7.31654 0.472194 6.81287 0.283316C6.30919 0.0944378 5.71558 0 5.05 0C4.20455 0 3.42655 0.130415 2.7385 0.395743C2.03245 0.661072 1.46582 1.06131 1.04759 1.57398C0.624862 2.10014 0.409002 2.74773 0.409002 3.49874C0.409002 4.51958 0.813741 5.38302 1.61422 6.07108C2.39672 6.74115 3.47602 7.15038 4.81616 7.2808C5.73806 7.37973 6.40363 7.62707 6.79038 8.01832C7.17713 8.40957 7.36151 8.8323 7.36151 9.31798C7.36151 9.69124 7.25358 9.99255 7.03772 10.2444C6.80837 10.5052 6.49807 10.7121 6.12031 10.8515C5.72907 10.9954 5.29285 11.0719 4.82965 11.0719C4.41142 11.0719 4.00668 11.0089 3.62892 10.883C3.25117 10.7571 2.92738 10.5907 2.66654 10.3928C2.41471 10.1994 2.23482 9.99255 2.12689 9.77219C2.00997 9.52035 1.83008 9.33147 1.59624 9.20556C1.35339 9.07514 1.10605 9.03916 0.858711 9.09313C0.521429 9.16058 0.269592 9.32698 0.121188 9.58331C-0.0317134 9.84864 -0.0407072 10.1454 0.0987028 10.4423C0.323558 10.9684 0.678828 11.4406 1.16002 11.8409C1.63221 12.2366 2.19435 12.5469 2.82844 12.7673C3.45803 12.9831 4.1326 13.0955 4.82965 13.0955C5.41427 13.0955 5.9899 13.0191 6.53854 12.8662C7.09618 12.7133 7.59986 12.4749 8.03608 12.1601C8.47679 11.8409 8.83656 11.4406 9.10189 10.9684C9.36722 10.4917 9.50663 9.92509 9.50663 9.2865C9.50663 8.18022 9.12438 7.2718 8.37786 6.58825L8.36886 6.56576Z" fill="var(--fill-0, white)"/>
<path id="Vector_2" d="M20.1648 3.80922C19.8006 3.80922 19.3194 3.96662 19.09 4.71763L17.66 9.20573L16.4817 4.6097C16.4278 4.37585 16.3108 4.18247 16.1354 4.03407C15.9556 3.88117 15.7262 3.80472 15.4519 3.80472C15.1776 3.80472 14.9302 3.88117 14.7548 4.03857C14.5884 4.18248 14.4715 4.37135 14.4086 4.59621L13.0594 9.16076L11.6383 4.71763C11.5394 4.40283 11.4045 4.18248 11.2336 4.03857C11.0537 3.88567 10.8289 3.80922 10.568 3.80922C10.0464 3.80922 9.82602 4.06555 9.73158 4.27691C9.61915 4.53775 9.61016 4.86154 9.70909 5.24379L12.0341 12.2233C12.106 12.4212 12.2365 12.592 12.4253 12.7225C12.6142 12.8529 12.8211 12.9203 13.0459 12.9203C13.2708 12.9203 13.4912 12.8529 13.68 12.7225C13.8734 12.5875 13.9993 12.4122 14.0578 12.2053L15.4024 7.46086L16.6841 12.2053C16.7426 12.4122 16.873 12.5875 17.0753 12.7225C17.2687 12.8529 17.4756 12.9203 17.6959 12.9203C17.9298 12.9203 18.1456 12.8529 18.3255 12.718C18.5099 12.5831 18.6313 12.4122 18.6898 12.2098L21.0058 5.26178C21.1452 4.86603 21.1452 4.52875 21.0058 4.25443C20.8979 4.04756 20.6685 3.80022 20.1693 3.80022L20.1648 3.80922Z" fill="var(--fill-0, white)"/>
<path id="Vector_3" d="M30.4274 8.18867C30.4005 7.38818 30.1981 6.65516 29.8203 6.00757C29.4156 5.31052 28.8624 4.75288 28.1789 4.35264C27.4908 3.9479 26.7083 3.74554 25.8494 3.74554C24.9904 3.74554 24.2035 3.9479 23.5109 4.35264C22.8184 4.75738 22.2652 5.31502 21.865 6.01207C21.4602 6.70912 21.2534 7.50511 21.2534 8.37305C21.2534 9.24099 21.4422 10.028 21.811 10.716C22.1843 11.4086 22.6969 11.9662 23.34 12.371C23.9876 12.7757 24.7251 12.9826 25.5346 12.9826C26.3441 12.9826 27.0861 12.7757 27.7292 12.371C27.9271 12.245 28.1159 12.1056 28.2868 11.9527C28.3048 12.2181 28.4082 12.4474 28.5881 12.6318C28.7905 12.8342 29.0468 12.9376 29.3526 12.9376C29.6584 12.9376 29.9148 12.8342 30.1171 12.6318C30.3195 12.4294 30.4229 12.1731 30.4229 11.8673V8.19316L30.4274 8.18867ZM28.026 9.73567C27.8101 10.1359 27.5088 10.4552 27.1356 10.6846C26.7623 10.9139 26.3306 11.0308 25.8539 11.0308C25.3772 11.0308 24.9545 10.9139 24.5767 10.6846C24.1945 10.4552 23.8932 10.1359 23.6683 9.73567C23.4479 9.33543 23.3355 8.87672 23.3355 8.37305C23.3355 7.86937 23.4479 7.39268 23.6683 6.99244C23.8887 6.5922 24.1945 6.2729 24.5767 6.04355C24.9545 5.8142 25.3817 5.69728 25.8539 5.69728C26.3261 5.69728 26.7668 5.8142 27.1356 6.04355C27.5088 6.2729 27.8101 6.5922 28.026 6.99244C28.2418 7.39268 28.3543 7.86038 28.3543 8.37755C28.3543 8.89471 28.2463 9.34442 28.026 9.74466V9.73567Z" fill="var(--fill-0, white)"/>
<path id="Vector_4" d="M38.8683 8.34713V8.3966C38.8683 8.3966 38.8683 8.37861 38.8683 8.36962C38.8683 8.36062 38.8683 8.35163 38.8683 8.34263V8.34713Z" fill="var(--fill-0, white)"/>
<path id="Vector_5" d="M48.0647 8.36855C48.0692 9.35791 47.7994 10.3653 47.2282 11.1253C46.6661 11.8718 45.8791 12.4474 44.9977 12.7532C43.743 13.1849 42.2409 13.05 41.0897 12.389C40.8558 12.254 40.6355 12.1011 40.4331 11.9303C40.7749 11.602 41.3505 10.4012 41.4405 9.9875C41.6833 10.3068 42.0476 10.6531 42.4163 10.8195C44.1477 11.6065 45.8926 10.2978 45.969 8.49447C46.0275 7.10936 45.1281 5.83219 43.689 5.70177C43.0055 5.63881 42.2994 5.87716 41.7867 6.32687C41.2111 6.83054 41.0177 7.61304 40.9548 8.34607V8.39554C40.9458 10.1089 40.0958 11.7863 38.5174 12.5598C37.3841 13.1175 35.99 13.131 34.8522 12.5688C34.5104 12.4024 34.2001 12.1911 33.9213 11.9482V14.9298C33.9213 15.2311 33.8224 15.4875 33.6245 15.6898C33.4266 15.8967 33.1658 16.0001 32.851 16.0001C32.5362 16.0001 32.2889 15.8967 32.0865 15.6943C31.8841 15.492 31.7807 15.2356 31.7807 14.9298V8.37305C31.7897 7.50061 31.9966 6.70912 32.3968 6.01207C32.7925 5.31502 33.3457 4.75738 34.0293 4.35264C34.7173 3.9479 35.4998 3.74554 36.3587 3.74554C37.2177 3.74554 38.0182 3.9479 38.7062 4.35264C38.9446 4.49205 39.2504 4.70342 39.4572 4.8833C39.1424 5.20259 38.7197 6.09302 38.5084 6.86652C37.519 5.35999 35.0636 5.35999 34.1866 6.98794C33.9708 7.38818 33.8584 7.85588 33.8584 8.37305C33.8584 8.89021 33.9663 9.33992 34.1866 9.74017C34.6903 10.6666 35.7516 11.1882 36.795 10.9994C37.7933 10.824 38.5623 10.037 38.8007 9.0611C38.8816 8.72382 38.8636 8.40453 38.8681 8.06275C38.8681 7.70298 38.9401 7.34321 39.0435 7.00143C39.2504 6.33137 39.6012 5.69728 40.0689 5.18011C40.9413 4.20874 42.1825 3.74554 43.4732 3.74554C45.3754 3.74554 47.0438 4.81584 47.7499 6.60119C47.9658 7.14534 48.0737 7.75245 48.0782 8.37305L48.0647 8.36855Z" fill="var(--fill-0, white)"/>
<path id="Vector_6" d="M38.8683 8.34713V8.3966C38.8683 8.3966 38.8683 8.37861 38.8683 8.36962C38.8683 8.36062 38.8683 8.35163 38.8683 8.34263V8.34713Z" fill="var(--fill-0, white)"/>
<path id="Vector_7" d="M38.8683 8.34713V8.3966C38.8683 8.3966 38.8683 8.37861 38.8683 8.36962C38.8683 8.36062 38.8683 8.35163 38.8683 8.34263V8.34713Z" fill="var(--fill-0, white)"/>
<path id="Vector_8" d="M36.4084 9.5791C37.0368 9.5791 37.5462 9.06971 37.5462 8.44134C37.5462 7.81297 37.0368 7.30357 36.4084 7.30357C35.7801 7.30357 35.2707 7.81297 35.2707 8.44134C35.2707 9.06971 35.7801 9.5791 36.4084 9.5791Z" fill="var(--fill-0, white)"/>
<path id="Vector_9" d="M43.4642 9.5791C44.0926 9.5791 44.602 9.06971 44.602 8.44134C44.602 7.81297 44.0926 7.30357 43.4642 7.30357C42.8359 7.30357 42.3265 7.81297 42.3265 8.44134C42.3265 9.06971 42.8359 9.5791 43.4642 9.5791Z" fill="var(--fill-0, white)"/>
</g>
</svg>
