<svg preserveAspectRatio="none" width="100%" height="100%" overflow="visible" style="display: block;" viewBox="0 0 103.872 35.0013" fill="none" xmlns="http://www.w3.org/2000/svg">
<g id="Group">
<path id="Vector" d="M18.0918 14.3611C16.5018 12.8978 14.2757 12.0103 11.4782 11.725C9.79244 11.5496 8.49711 11.2459 7.62839 10.8219C6.80621 10.4214 6.24257 9.95539 5.95558 9.43707C5.65308 8.89519 5.50571 8.34546 5.50571 7.75908C5.50571 6.63082 5.96334 5.81669 6.90187 5.27481C7.93348 4.68058 9.24691 4.38739 10.8085 4.41095C11.6824 4.41095 12.4451 4.53136 13.076 4.76696C13.7069 5.00256 14.2602 5.32978 14.723 5.73816C15.1883 6.14653 15.5891 6.65961 15.92 7.26694C16.2432 7.83237 16.7293 8.22242 17.3653 8.42661C18.022 8.63865 18.671 8.5575 19.2501 8.18839C19.775 7.84546 20.0956 7.33762 20.1732 6.71982C20.2456 6.13606 20.0878 5.5235 19.7026 4.91356C19.1105 3.92928 18.3995 3.06541 17.5928 2.34291C16.7758 1.61255 15.8089 1.03402 14.7178 0.620412C13.6293 0.209422 12.3469 0 10.9068 0C9.08402 0 7.40087 0.290573 5.90904 0.861247C4.38361 1.44501 3.1555 2.31411 2.25834 3.44499C1.34049 4.59943 0.875108 6.01564 0.875108 7.65698C0.875108 9.88471 1.75159 11.7774 3.48386 13.2826C5.17218 14.7511 7.5017 15.6412 10.4052 15.9239C12.4012 16.1359 13.8361 16.6778 14.6713 17.5338C15.5038 18.3872 15.9071 19.3139 15.9071 20.3741C15.9071 21.1935 15.677 21.8558 15.2064 22.4003C14.71 22.9736 14.043 23.4186 13.226 23.7275C12.3805 24.0442 11.442 24.2039 10.4336 24.2039C9.53131 24.2039 8.65741 24.0652 7.84299 23.7877C7.02856 23.5128 6.32789 23.1516 5.76167 22.7144C5.21872 22.2956 4.82573 21.8375 4.5982 21.3558C4.34224 20.8087 3.957 20.3898 3.45025 20.1123C2.93057 19.827 2.38762 19.7432 1.85501 19.8637C1.12073 20.0129 0.585533 20.3715 0.262348 20.9343C-0.0711796 21.5129 -0.0866925 22.1621 0.215809 22.8139C0.70188 23.9657 1.47235 24.9945 2.50655 25.8714C3.52781 26.7379 4.74041 27.4185 6.11071 27.8976C7.47585 28.374 8.92889 28.6149 10.4311 28.6149C11.6954 28.6149 12.939 28.4473 14.1257 28.1123C15.3254 27.7746 16.4139 27.2536 17.3576 26.5652C18.3142 25.8662 19.0898 24.9893 19.6586 23.9579C20.2352 22.9134 20.53 21.6725 20.53 20.2746C20.53 17.8506 19.7078 15.8637 18.0867 14.369L18.0918 14.3611Z" fill="var(--fill-0, #37C5F3)"/>
<path id="Vector_2" d="M43.5764 8.32944C42.7904 8.32944 41.7511 8.67499 41.2573 10.3189L38.1624 20.1408L35.6131 10.0886C35.4942 9.5755 35.2408 9.15142 34.8608 8.82682C34.4704 8.49698 33.9739 8.32683 33.3845 8.32683C32.795 8.32683 32.2598 8.49698 31.8823 8.83467C31.5281 9.14881 31.2747 9.5598 31.1299 10.0546L28.2109 20.0387L25.1393 10.3163C24.9222 9.63048 24.6352 9.14357 24.2629 8.82682C23.8725 8.49698 23.389 8.32683 22.8202 8.32683C21.6903 8.32683 21.2146 8.88441 21.0129 9.35037C20.7673 9.91843 20.7518 10.6305 20.9664 11.4682L25.9926 26.7376C26.1451 27.1748 26.4295 27.5413 26.8328 27.8292C27.2362 28.1172 27.686 28.2638 28.1695 28.2638C28.653 28.2638 29.1365 28.1172 29.5398 27.8292C29.9561 27.5334 30.2302 27.1538 30.3594 26.701L33.2655 16.3215L36.0372 26.701C36.1664 27.1565 36.4483 27.5387 36.88 27.8345C37.2937 28.1198 37.7462 28.2638 38.2245 28.2638C38.7338 28.2638 39.1915 28.1146 39.587 27.824C39.9826 27.5308 40.2489 27.1591 40.3756 26.7167L45.3785 11.5205C45.681 10.6566 45.6836 9.91581 45.3811 9.32158C45.151 8.8687 44.652 8.32944 43.5738 8.32944H43.5764Z" fill="var(--fill-0, #37C5F3)"/>
<path id="Vector_3" d="M65.7495 17.9177C65.69 16.1691 65.253 14.5644 64.4412 13.1455C63.5699 11.622 62.3754 10.4047 60.8939 9.52254C59.4099 8.63774 57.7138 8.1901 55.8574 8.1901C54.001 8.1901 52.3024 8.63774 50.8054 9.51992C49.311 10.4021 48.1139 11.6246 47.2451 13.1455C46.3713 14.6691 45.9266 16.4073 45.9266 18.3104C45.9266 20.2135 46.3325 21.9334 47.1314 23.4412C47.9329 24.9543 49.0446 26.1716 50.4356 27.0564C51.8318 27.9464 53.4296 28.3993 55.1826 28.3993C56.9355 28.3993 58.5334 27.9464 59.9295 27.0564C60.3587 26.7841 60.7621 26.4779 61.1395 26.1428C61.1783 26.7265 61.3981 27.2239 61.7937 27.6244C62.2332 28.0695 62.7891 28.2946 63.4458 28.2946C64.1025 28.2946 64.6558 28.0695 65.0927 27.6244C65.5349 27.1794 65.7546 26.6166 65.7546 25.9543V17.9204H65.7495V17.9177ZM60.5578 21.2999C60.0924 22.1742 59.4435 22.8706 58.6368 23.3732C57.8327 23.8732 56.8968 24.1271 55.8626 24.1271C54.8284 24.1271 53.9183 23.8732 53.1039 23.3732C52.2791 22.8706 51.6224 22.1716 51.1441 21.2973C50.6632 20.4203 50.4227 19.4151 50.4227 18.313C50.4227 17.2109 50.6632 16.1691 51.1441 15.2921C51.6198 14.4178 52.2791 13.7188 53.1039 13.2162C53.9183 12.7162 54.8465 12.4623 55.8626 12.4623C56.8787 12.4623 57.8327 12.7162 58.6368 13.2162C59.446 13.7188 60.0924 14.4152 60.5578 15.2895C61.0284 16.1691 61.2662 17.1874 61.2662 18.3156C61.2662 19.4439 61.0284 20.4282 60.5578 21.3051V21.2999Z" fill="var(--fill-0, #37C5F3)"/>
<path id="Vector_4" d="M83.9991 18.2602V18.3728C84.0017 18.3545 84.0017 18.3361 84.0017 18.3178C84.0017 18.2995 84.0017 18.2812 83.9991 18.2628V18.2602Z" fill="var(--fill-0, #37C5F3)"/>
<path id="Vector_5" d="M103.871 18.3104C103.884 20.4779 103.295 22.6742 102.059 24.3418C100.846 25.9779 99.1476 27.2396 97.2343 27.8993C94.5196 28.8391 91.2826 28.5511 88.7876 27.1035C88.2782 26.8077 87.8077 26.4752 87.3707 26.0983C88.1102 25.3784 89.3564 22.7554 89.5451 21.847C90.0726 22.5407 90.8585 23.2999 91.6523 23.6664C95.3935 25.3836 99.1631 22.5224 99.326 18.5827C99.4527 15.5513 97.5032 12.7607 94.3955 12.4702C92.9166 12.3314 91.3963 12.8523 90.282 13.8393C89.041 14.9387 88.6221 16.6534 88.4799 18.2581V18.3706C88.4644 22.1245 86.6209 25.7894 83.2133 27.4778C80.7596 28.6951 77.7476 28.7318 75.2939 27.4988C74.5571 27.1297 73.8848 26.6768 73.2798 26.1402V32.661C73.2798 33.3207 73.0627 33.8809 72.6412 34.3233C72.212 34.7736 71.6484 35.0013 70.9658 35.0013C70.2833 35.0013 69.7558 34.7762 69.3163 34.3312C68.8768 33.8862 68.6544 33.3233 68.6544 32.661V18.313C68.6777 16.4073 69.125 14.6743 69.9833 13.1508C70.8417 11.6272 72.0336 10.4073 73.5125 9.52254C74.9966 8.63774 76.6927 8.1901 78.5516 8.1901C80.4106 8.1901 82.1351 8.63774 83.6218 9.52254C84.1415 9.83144 84.7982 10.2869 85.2429 10.6796C84.5655 11.3812 83.6502 13.3288 83.1952 15.0199C81.057 11.7189 75.7567 11.7267 73.8538 15.2869C73.3833 16.1638 73.1454 17.1848 73.1454 18.313C73.1454 19.4413 73.3833 20.4256 73.8538 21.3025C74.9423 23.3339 77.233 24.4648 79.4902 24.0617C81.6516 23.6742 83.3115 21.9596 83.826 19.8261C84.0044 19.0879 83.9631 18.3863 83.9708 17.6376C83.9786 16.8523 84.1208 16.067 84.3483 15.3157C84.793 13.855 85.5557 12.4649 86.5641 11.3262C88.4489 9.20317 91.1326 8.1901 93.9198 8.1901C98.0307 8.1901 101.64 10.533 103.16 14.4413C103.623 15.6272 103.864 16.9649 103.871 18.313V18.3104Z" fill="var(--fill-0, #37C5F3)"/>
<path id="Vector_6" d="M83.9991 18.2602V18.3728C84.0017 18.3545 84.0017 18.3361 84.0017 18.3178C84.0017 18.2995 84.0017 18.2812 83.9991 18.2628V18.2602Z" fill="var(--fill-0, #37C5F3)"/>
<path id="Vector_7" d="M83.9991 18.2602V18.3728C84.0017 18.3545 84.0017 18.3361 84.0017 18.3178C84.0017 18.2995 84.0017 18.2812 83.9991 18.2628V18.2602Z" fill="var(--fill-0, #37C5F3)"/>
<path id="Vector_8" d="M78.6766 20.9506C80.0331 20.9506 81.1328 19.8372 81.1328 18.4637C81.1328 17.0903 80.0331 15.9768 78.6766 15.9768C77.3201 15.9768 76.2204 17.0903 76.2204 18.4637C76.2204 19.8372 77.3201 20.9506 78.6766 20.9506Z" fill="var(--fill-0, #37C5F3)"/>
<path id="Vector_9" d="M93.9265 20.9506C95.283 20.9506 96.3827 19.8372 96.3827 18.4637C96.3827 17.0903 95.283 15.9768 93.9265 15.9768C92.5699 15.9768 91.4703 17.0903 91.4703 18.4637C91.4703 19.8372 92.5699 20.9506 93.9265 20.9506Z" fill="var(--fill-0, #37C5F3)"/>
</g>
</svg>
