<svg preserveAspectRatio="none" width="100%" height="100%" overflow="visible" style="display: block;" viewBox="0 0 59.3529 20" fill="none" xmlns="http://www.w3.org/2000/svg">
<g id="Group">
<path id="Vector" d="M10.3378 8.2057C9.4292 7.36957 8.15719 6.86251 6.55869 6.69947C5.59545 6.59926 4.8553 6.42575 4.3589 6.18344C3.8891 5.95459 3.56704 5.68835 3.40305 5.39219C3.2302 5.08257 3.14599 4.76846 3.14599 4.43341C3.14599 3.78874 3.40748 3.32356 3.94377 3.01394C4.53323 2.67441 5.28373 2.50688 6.17606 2.52034C6.6754 2.52034 7.11122 2.58915 7.4717 2.72376C7.83218 2.85838 8.14833 3.04535 8.41278 3.27869C8.6787 3.51203 8.90769 3.80519 9.0968 4.15221C9.28147 4.47529 9.55921 4.69816 9.92264 4.81483C10.2979 4.93598 10.6687 4.88961 10.9996 4.67871C11.2995 4.48277 11.4827 4.19259 11.5271 3.8396C11.5684 3.50604 11.4783 3.15604 11.2582 2.80753C10.9199 2.24512 10.5136 1.75153 10.0526 1.3387C9.5858 0.921383 9.03327 0.590822 8.40982 0.354493C7.78785 0.11966 7.05508 0 6.2322 0C5.19066 0 4.2289 0.166028 3.37646 0.492103C2.50482 0.825655 1.80307 1.32225 1.29043 1.96841C0.765966 2.62804 0.500041 3.43724 0.500041 4.37508C0.500041 5.64796 1.00087 6.72939 1.9907 7.58945C2.95541 8.42856 4.28651 8.93712 5.94559 9.09866C7.08611 9.21982 7.90604 9.52944 8.38323 10.0185C8.85894 10.5062 9.08941 11.0357 9.08941 11.6414C9.08941 12.1096 8.95792 12.488 8.68904 12.7992C8.40539 13.1267 8.02423 13.381 7.55739 13.5575C7.07429 13.7385 6.53801 13.8297 5.96184 13.8297C5.44624 13.8297 4.94689 13.7505 4.48152 13.5919C4.01616 13.4348 3.61579 13.2284 3.29225 12.9786C2.982 12.7393 2.75745 12.4776 2.62744 12.2023C2.48118 11.8897 2.26105 11.6504 1.97149 11.4919C1.67454 11.3288 1.3643 11.281 1.05996 11.3498C0.64039 11.435 0.334577 11.6399 0.149907 11.9615C-0.0406724 12.2921 -0.0495366 12.663 0.123314 13.0355C0.401058 13.6936 0.841311 14.2814 1.43225 14.7825C2.01581 15.2776 2.70869 15.6665 3.49169 15.9402C4.27174 16.2125 5.10202 16.3501 5.96036 16.3501C6.68279 16.3501 7.3934 16.2543 8.07151 16.0629C8.757 15.8699 9.37897 15.5723 9.91821 15.1789C10.4648 14.7795 10.908 14.2785 11.2331 13.6891C11.5625 13.0923 11.7309 12.3833 11.7309 11.5846C11.7309 10.1995 11.2611 9.06426 10.3348 8.21018L10.3378 8.2057Z" fill="var(--fill-0, #37C5F3)"/>
<path id="Vector_2" d="M24.8999 4.75876C24.4508 4.75876 23.8569 4.9562 23.5747 5.89553L21.8063 11.5076L20.3496 5.76391C20.2817 5.47074 20.1369 5.22843 19.9197 5.04296C19.6966 4.85449 19.413 4.75727 19.0761 4.75727C18.7393 4.75727 18.4335 4.85449 18.2178 5.04744C18.0154 5.22693 17.8706 5.46177 17.7879 5.74446L16.1199 11.4493L14.3648 5.89404C14.2407 5.50215 14.0767 5.22394 13.864 5.04296C13.6409 4.85449 13.3647 4.75727 13.0396 4.75727C12.394 4.75727 12.1222 5.07586 12.007 5.34211C11.8666 5.66668 11.8578 6.07353 11.9804 6.55217L14.8524 15.2769C14.9395 15.5267 15.102 15.7361 15.3325 15.9006C15.563 16.0652 15.82 16.1489 16.0963 16.1489C16.3726 16.1489 16.6488 16.0652 16.8793 15.9006C17.1172 15.7316 17.2738 15.5147 17.3476 15.256L19.0082 9.32529L20.5919 15.256C20.6658 15.5162 20.8268 15.7346 21.0735 15.9036C21.3099 16.0667 21.5684 16.1489 21.8417 16.1489C22.1328 16.1489 22.3943 16.0637 22.6203 15.8976C22.8464 15.7301 22.9985 15.5177 23.0709 15.2649L25.9296 6.58208C26.1025 6.08849 26.1039 5.66519 25.9311 5.32565C25.7996 5.06689 25.5145 4.75876 24.8984 4.75876H24.8999Z" fill="var(--fill-0, #37C5F3)"/>
<path id="Vector_3" d="M37.5695 10.2387C37.5356 9.23956 37.2859 8.32266 36.822 7.51196C36.3241 6.64143 35.6416 5.94591 34.7951 5.44184C33.9471 4.93628 32.9779 4.6805 31.9172 4.6805C30.8564 4.6805 29.8858 4.93628 29.0304 5.44034C28.1765 5.94441 27.4925 6.64293 26.9961 7.51196C26.4967 8.38249 26.2426 9.37567 26.2426 10.4631C26.2426 11.5505 26.4746 12.5332 26.9311 13.3948C27.3891 14.2593 28.0243 14.9548 28.8191 15.4604C29.6169 15.9689 30.5299 16.2277 31.5316 16.2277C32.5332 16.2277 33.4462 15.9689 34.244 15.4604C34.4892 15.3048 34.7197 15.1298 34.9354 14.9384C34.9576 15.2719 35.0831 15.5561 35.3092 15.785C35.5603 16.0392 35.878 16.1679 36.2532 16.1679C36.6285 16.1679 36.9446 16.0392 37.1943 15.785C37.4469 15.5307 37.5725 15.2091 37.5725 14.8307V10.2402H37.5695V10.2387ZM34.603 12.1712C34.3371 12.6708 33.9663 13.0687 33.5053 13.3559C33.0459 13.6416 32.5111 13.7866 31.9201 13.7866C31.3292 13.7866 30.8091 13.6416 30.3438 13.3559C29.8725 13.0687 29.4972 12.6693 29.2239 12.1697C28.9491 11.6687 28.8118 11.0943 28.8118 10.4646C28.8118 9.83487 28.9491 9.23956 29.2239 8.73848C29.4958 8.2389 29.8725 7.83953 30.3438 7.55235C30.8091 7.26666 31.3395 7.12157 31.9201 7.12157C32.5007 7.12157 33.0459 7.26666 33.5053 7.55235C33.9677 7.83953 34.3371 8.2374 34.603 8.73698C34.8719 9.23956 35.0078 9.8214 35.0078 10.4661C35.0078 11.1107 34.8719 11.6731 34.603 12.1742V12.1712Z" fill="var(--fill-0, #37C5F3)"/>
<path id="Vector_4" d="M47.9975 10.4339V10.4982C47.9989 10.4877 47.9989 10.4772 47.9989 10.4668C47.9989 10.4563 47.9989 10.4458 47.9975 10.4354V10.4339Z" fill="var(--fill-0, #37C5F3)"/>
<path id="Vector_5" d="M59.3528 10.4631C59.3602 11.7016 59.0233 12.9565 58.3171 13.9093C57.6243 14.8441 56.6536 15.5651 55.5604 15.942C54.0092 16.479 52.1595 16.3145 50.7339 15.4873C50.4428 15.3183 50.1739 15.1283 49.9243 14.9129C50.3468 14.5016 51.0589 13.0029 51.1667 12.4838C51.4681 12.8802 51.9172 13.314 52.3708 13.5234C54.5085 14.5046 56.6625 12.8697 56.7556 10.6186C56.828 8.88656 55.714 7.29209 53.9382 7.12606C53.0932 7.04678 52.2245 7.34444 51.5878 7.90834C50.8786 8.53655 50.6393 9.51627 50.5581 10.4332V10.4975C50.5492 12.6424 49.4958 14.7364 47.5487 15.7012C46.1467 16.3967 44.4255 16.4177 43.0235 15.7132C42.6025 15.5023 42.2184 15.2435 41.8727 14.9369V18.6628C41.8727 19.0397 41.7486 19.3598 41.5077 19.6126C41.2625 19.8699 40.9404 20 40.5504 20C40.1604 20 39.859 19.8714 39.6079 19.6171C39.3567 19.3628 39.2297 19.0412 39.2297 18.6628V10.4646C39.243 9.37567 39.4985 8.38548 39.989 7.51495C40.4795 6.64442 41.1606 5.9474 42.0056 5.44184C42.8536 4.93628 43.8228 4.6805 44.885 4.6805C45.9472 4.6805 46.9326 4.93628 47.7821 5.44184C48.079 5.61834 48.4543 5.8786 48.7084 6.10296C48.3213 6.50382 47.7983 7.61666 47.5383 8.58292C46.3166 6.69678 43.288 6.70126 42.2006 8.73549C41.9317 9.23656 41.7958 9.81991 41.7958 10.4646C41.7958 11.1092 41.9317 11.6716 42.2006 12.1727C42.8226 13.3334 44.1315 13.9796 45.4213 13.7493C46.6563 13.5279 47.6048 12.5482 47.8988 11.3291C48.0007 10.9073 47.9771 10.5065 47.9815 10.0787C47.986 9.62995 48.0672 9.18122 48.1972 8.75194C48.4513 7.91731 48.8872 7.12307 49.4633 6.47241C50.5403 5.25936 52.0738 4.6805 53.6664 4.6805C56.0154 4.6805 58.0778 6.0192 58.9465 8.25236C59.2109 8.92994 59.3483 9.69427 59.3528 10.4646V10.4631Z" fill="var(--fill-0, #37C5F3)"/>
<path id="Vector_6" d="M47.9975 10.4339V10.4982C47.9989 10.4877 47.9989 10.4772 47.9989 10.4668C47.9989 10.4563 47.9989 10.4458 47.9975 10.4354V10.4339Z" fill="var(--fill-0, #37C5F3)"/>
<path id="Vector_7" d="M47.9975 10.4339V10.4982C47.9989 10.4877 47.9989 10.4772 47.9989 10.4668C47.9989 10.4563 47.9989 10.4458 47.9975 10.4354V10.4339Z" fill="var(--fill-0, #37C5F3)"/>
<path id="Vector_8" d="M44.9562 11.9724C45.7314 11.9724 46.3597 11.3363 46.3597 10.5515C46.3597 9.7667 45.7314 9.13051 44.9562 9.13051C44.1811 9.13051 43.5527 9.7667 43.5527 10.5515C43.5527 11.3363 44.1811 11.9724 44.9562 11.9724Z" fill="var(--fill-0, #37C5F3)"/>
<path id="Vector_9" d="M53.6699 11.9724C54.445 11.9724 55.0734 11.3363 55.0734 10.5515C55.0734 9.7667 54.445 9.13051 53.6699 9.13051C52.8948 9.13051 52.2664 9.7667 52.2664 10.5515C52.2664 11.3363 52.8948 11.9724 53.6699 11.9724Z" fill="var(--fill-0, #37C5F3)"/>
</g>
</svg>
