<svg preserveAspectRatio="none" width="100%" height="100%" overflow="visible" style="display: block;" viewBox="0 0 102.211 138.191" fill="none" xmlns="http://www.w3.org/2000/svg">
<g id="Group">
<path id="Vector" d="M46.19 92.4352C47.2786 91.9495 50.5957 93.2923 10.9414 83.8009C10.9414 98.1323 10.97 106.852 10.97 120.529C10.97 122.069 11.91 123.464 13.3328 124.035L47.1043 137.484L88.4471 123.921C89.9871 123.435 91.0414 121.984 91.0414 120.358C91.0414 111.072 91.0414 104.032 91.07 95.9695L56.4757 103.461L46.19 92.4352ZM90.0671 57.1466C70.1843 54.9323 50.37 59.418 35.2386 67.6323C34.81 67.8609 34.3814 68.0895 33.9528 68.3466C33.6385 68.4895 33.3528 68.6609 33.0386 68.8323C31.1471 69.9009 29.0157 69.3466 27.1814 68.2037C26.6957 67.8895 26.1814 67.5466 25.6957 67.118C25.2671 66.7752 24.8385 66.3752 24.41 65.9466C24.0671 65.6038 23.7243 65.2323 23.3814 64.8323C19.6443 60.5409 15.7814 52.8809 15.9814 47.4609C16.0385 44.9752 16.9814 43.1466 18.6671 42.2323C36.1814 33.1466 50.6671 18.4037 59.4385 0.746604C59.6757 0.212318 60.45 0.226603 60.6957 0.718032L60.7243 0.746604C55.4128 2.87518 63.6328 21.4323 66.1243 26.5752C68.3214 31.038 69.93 34.0723 73.0385 39.0609C75.8785 43.618 86.47 59.2895 90.7243 56.0895L90.7528 56.1466C91.0385 56.6038 90.6157 57.2066 90.0671 57.1466Z" fill="var(--fill-0, #E8E8E8)"/>
<path id="Vector_2" d="M101.988 93.1983L91.5655 83.3212C91.4558 83.2098 91.312 83.1384 91.157 83.1183L71.4227 78.1069C73.8565 75.2619 77.2449 73.403 80.952 72.879C84.6591 72.3551 88.43 73.2021 91.557 75.2612C92.3541 75.7755 93.1312 74.5897 92.3455 74.0669C88.8305 71.7466 84.5708 70.8346 80.4138 71.5122C76.2569 72.1899 72.5074 74.4075 69.9112 77.724L56.5398 74.3297C55.1655 72.6583 53.9455 71.844 52.1912 70.3526C52.7554 70.1126 53.2216 69.6886 53.5141 69.1497C55.3827 65.5383 49.3998 61.9269 47.3284 65.0355C46.8176 64.3138 46.3399 63.5692 45.897 62.804C45.4398 62.9469 44.9827 63.1183 44.5255 63.3183C48.9541 71.124 53.9684 72.7412 56.0398 75.9183C59.9341 81.9412 53.1284 89.0698 46.9827 83.6326C43.7255 80.7298 42.4255 75.1612 35.2398 67.6326C34.8112 67.8612 34.3827 68.0897 33.9541 68.3469C36.1608 70.6342 38.1521 73.1199 39.9027 75.7726C36.9655 76.5155 50.5398 73.0812 11.1827 83.0297L2.0398 72.6583L25.6969 67.1155C25.2684 66.7726 24.8398 66.3726 24.4112 65.944L0.554091 71.544C-0.0316237 71.6755 -0.148767 72.3326 0.182662 72.7155L10.3712 84.244C10.4677 84.3844 10.6119 84.4849 10.7769 84.5269L45.5684 92.7355C45.7312 93.0812 45.9827 93.2126 55.9541 103.95C56.0385 104.04 56.145 104.108 56.2633 104.145C56.3815 104.182 56.5073 104.187 56.6284 104.161L101.646 94.4155C101.773 94.3884 101.89 94.3271 101.985 94.238C102.08 94.149 102.149 94.0358 102.185 93.9104C102.22 93.7851 102.22 93.6526 102.186 93.527C102.151 93.4015 102.083 93.2879 101.988 93.1983ZM50.377 86.8755V89.644C50.377 90.5869 51.8055 90.5869 51.8055 89.644V86.9869C57.6141 86.3669 59.9684 80.8097 57.7084 76.0983L69.0084 78.9669C68.7912 79.3012 68.5684 79.6326 68.3769 79.9812C67.9169 80.8183 69.1769 81.4926 69.6255 80.6726C69.8827 80.2155 70.1598 79.7669 70.4598 79.3355L87.7027 83.7155L46.577 91.504L13.9569 83.8069L40.7255 77.0897C42.8398 80.2612 45.017 85.924 50.377 86.8755ZM56.7198 102.678L47.5912 92.8955L90.8398 84.604L100.023 93.3069L56.7198 102.678ZM45.8484 109.001L46.3855 137.493C46.4055 138.447 47.8341 138.41 47.8141 137.464L47.2741 108.973C47.2627 108.053 45.8284 108.047 45.8484 109.001ZM22.2684 65.404C22.6398 65.204 23.0112 65.004 23.3827 64.8326C20.4969 61.5183 17.9541 56.8326 16.7255 52.5755C16.3827 52.804 15.9827 52.9755 15.6398 53.1755C11.8969 55.2326 18.4969 67.4326 22.2684 65.404ZM45.9627 62.3783C46.6512 62.9955 47.6227 61.9355 46.9055 61.3069C39.4141 54.7069 34.6884 46.0097 32.4598 34.7155C32.2712 33.7926 30.8712 34.0669 31.0598 34.9955C33.3484 46.6069 38.2227 55.564 45.9627 62.3783ZM21.9227 51.8926L29.0227 47.9583C29.8541 47.4955 29.1484 46.2497 28.3312 46.7069L21.2312 50.6412C20.4084 51.0983 21.0969 52.3555 21.9227 51.8926ZM31.1198 51.8297L24.0141 55.764C23.1941 56.2212 23.8827 57.4783 24.7084 57.0155L31.8112 53.0812C32.6455 52.6155 31.9255 51.3669 31.1198 51.8297ZM27.4941 62.1383L34.5969 58.2012C35.4255 57.7383 34.7255 56.4869 33.9027 56.9497L26.8027 60.8869C25.9798 61.344 26.6684 62.6012 27.4941 62.1383ZM72.4255 39.444C75.5941 44.5183 86.5112 60.5126 91.0655 56.7155L90.7255 56.0783L91.1484 56.6555C91.1629 56.6423 91.1782 56.6299 91.1941 56.6183C98.7712 50.0555 70.6141 -2.29597 60.4512 0.0783146L59.9512 0.286886C55.937 2.4926 59.8455 15.2412 65.4941 26.9012C67.5858 31.1993 69.8994 35.3859 72.4255 39.444ZM73.2027 37.9697C70.5341 33.6612 69.0512 30.8383 67.0941 26.8926C68.2112 26.3212 69.1598 25.9526 70.0969 25.7212C76.6969 24.1097 80.497 31.504 73.2027 37.9697ZM90.2741 55.5212C90.217 55.5697 90.0741 55.6726 90.0712 55.6755C87.9684 56.8669 81.3855 50.9555 73.9484 39.1755C76.2484 37.1869 78.1798 34.7526 78.537 31.6326V31.6212C78.9941 26.7297 75.2141 23.0069 69.757 24.3355C68.7255 24.5926 67.6655 25.0297 66.477 25.6326C63.597 19.6097 61.6855 14.4269 60.637 10.4212C60.757 10.3012 60.8741 10.1783 61.017 10.1012C66.6227 7.0526 85.0455 34.0955 90.9427 53.944C90.8284 54.6669 90.617 55.2155 90.2741 55.5212ZM87.1684 17.7897L89.2198 13.8383C89.6541 12.9955 88.3827 12.3469 87.9512 13.1812L85.9027 17.1326C85.4655 17.9755 86.7398 18.6269 87.1684 17.7897ZM91.4598 21.5497L97.477 19.3726C98.3541 19.0583 97.9027 17.7183 96.9912 18.0297L90.9741 20.2012C90.1027 20.5155 90.5455 21.864 91.4598 21.5497ZM91.8455 25.7183C90.9084 25.5383 90.6712 26.964 91.5998 27.124C93.477 27.4497 94.1998 27.9469 94.5512 27.9469C95.3398 27.9469 95.5369 26.8612 94.8227 26.5697C93.8636 26.1801 92.8655 25.8947 91.8455 25.7183Z" fill="var(--fill-0, black)"/>
<path id="Vector_3" d="M70.0492 64.9177C68.119 67.111 66.4727 69.5387 65.1492 72.1434C64.7207 72.992 65.9978 73.6292 66.4207 72.7892C67.6921 70.292 69.2721 67.9606 71.1207 65.8606C71.7492 65.152 70.6635 64.2034 70.0492 64.9177Z" fill="var(--fill-0, black)"/>
</g>
</svg>
