<svg preserveAspectRatio="none" width="100%" height="100%" overflow="visible" style="display: block;" viewBox="0 0 20 20" fill="none" xmlns="http://www.w3.org/2000/svg">
<g id="bag-happy">
<path id="Vector" d="M7.08333 11.875C7.08333 13.475 8.4 14.7917 10 14.7917C11.6 14.7917 12.9167 13.475 12.9167 11.875" stroke="var(--stroke-0, #0B1A55)" stroke-miterlimit="10" stroke-linecap="round" stroke-linejoin="round"/>
<path id="Vector_2" d="M7.34167 1.66667L4.325 4.69167" stroke="var(--stroke-0, #292D32)" stroke-miterlimit="10" stroke-linecap="round" stroke-linejoin="round"/>
<path id="Vector_3" d="M12.6583 1.66667L15.675 4.69167" stroke="var(--stroke-0, #292D32)" stroke-miterlimit="10" stroke-linecap="round" stroke-linejoin="round"/>
<path id="Vector_4" d="M1.66667 6.54167C1.66667 5 2.49167 4.875 3.51667 4.875H16.4833C17.5083 4.875 18.3333 5 18.3333 6.54167C18.3333 8.33333 17.5083 8.20833 16.4833 8.20833H3.51667C2.49167 8.20833 1.66667 8.33333 1.66667 6.54167Z" stroke="var(--stroke-0, #292D32)"/>
<path id="Vector_5" d="M2.91667 8.33333L4.09167 15.5333C4.35833 17.15 5 18.3333 7.38333 18.3333H12.4083C15 18.3333 15.3833 17.2 15.6833 15.6333L17.0833 8.33333" stroke="var(--stroke-0, #292D32)" stroke-linecap="round"/>
<g id="Vector_6" opacity="0">
</g>
</g>
</svg>
